<?xml version="1.0" encoding="utf-8"?>
<!-- Generator: Adobe Illustrator 27.5.0, SVG Export Plug-In . SVG Version: 6.00 Build 0)  -->
<svg version="1.1" xmlns="http://www.w3.org/2000/svg" xmlns:xlink="http://www.w3.org/1999/xlink" x="0px" y="0px"
	 viewBox="0 0 750 500" style="enable-background:new 0 0 750 500;" xml:space="preserve">
<g id="Floor">
	
		<line style="fill:none;stroke:#263238;stroke-width:2.5;stroke-linecap:round;stroke-linejoin:round;stroke-miterlimit:10;" x1="66.197" y1="453.648" x2="683.803" y2="453.648"/>
</g>
<g id="Arrow">
	<path style="fill:#FFFFFF;stroke:#EC644E;stroke-width:2.5;stroke-linecap:round;stroke-linejoin:round;stroke-miterlimit:10;" d="
		M623.71,232.206l-5.64,19.67l-0.01,0.06l-0.08,0.26c-0.014,0.048-0.038,0.09-0.053,0.137c-0.08,0.253-0.17,0.5-0.286,0.738
		c-0.015,0.031-0.034,0.058-0.049,0.089c-0.414,0.815-1.014,1.536-1.792,2.057c-0.34,0.24-0.72,0.44-1.13,0.59
		c-0.07,0.04-0.15,0.06-0.23,0.09c-0.09,0.03-0.17,0.06-0.26,0.07c-0.13,0.04-0.27,0.08-0.41,0.1c-0.12,0.03-0.24,0.05-0.36,0.06
		c-0.09,0.02-0.18,0.03-0.27,0.03c-0.15,0.01-0.3,0.02-0.45,0.02c-0.28,0-0.56-0.02-0.84-0.07c-0.14-0.02-0.28-0.05-0.41-0.08
		c-0.13-0.03-0.25-0.06-0.36-0.1c-0.15-0.04-0.3-0.09-0.45-0.16c-0.11-0.04-0.21-0.09-0.31-0.14c-0.15-0.06-0.31-0.14-0.45-0.24
		c-0.03-0.01-0.05-0.02-0.08-0.04l-17.68-11c-2.58-1.61-3.37-5-1.76-7.58c1.6-2.58,5-3.37,7.57-1.76l4.09,2.55
		c-17.03-42.07-45.25-78.32-82.31-105.49c-42.18-30.94-92.22-47.29-144.7-47.29s-102.52,16.35-144.7,47.29
		c-41.35,30.32-71.7,71.94-87.79,120.34c-0.76,2.31-2.91,3.77-5.22,3.77c-0.57,0-1.16-0.09-1.73-0.28
		c-2.88-0.96-4.44-4.07-3.49-6.96c16.81-50.58,48.53-94.06,91.72-125.74c44.09-32.33,96.37-49.42,151.21-49.42
		c54.83,0,107.12,17.09,151.21,49.42c38.58,28.3,68.01,66.02,85.83,109.8l1.1-3.82c0.83-2.92,3.89-4.61,6.8-3.77
		C622.86,226.245,624.55,229.286,623.71,232.206z"/>
</g>
<g id="Files">
	<g>
		<g>
			<g>
				
					<rect x="220.837" y="80.525" transform="matrix(0.8442 -0.5361 0.5361 0.8442 -29.2067 180.7496)" style="fill:#FFFFFF;stroke:#9ABAE3;stroke-width:2.5;stroke-linecap:round;stroke-linejoin:round;stroke-miterlimit:10;" width="150.893" height="120.169"/>
				<g>
					
						<line style="fill:none;stroke:#9ABAE3;stroke-width:2.5;stroke-linecap:round;stroke-linejoin:round;stroke-miterlimit:10;" x1="266.233" y1="103.2" x2="317.366" y2="183.715"/>
					
						<line style="fill:none;stroke:#9ABAE3;stroke-width:2.5;stroke-linecap:round;stroke-linejoin:round;stroke-miterlimit:10;" x1="259.395" y1="107.542" x2="310.527" y2="188.058"/>
					
						<line style="fill:none;stroke:#9ABAE3;stroke-width:2.5;stroke-linecap:round;stroke-linejoin:round;stroke-miterlimit:10;" x1="252.556" y1="111.885" x2="289.656" y2="170.303"/>
					
						<line style="fill:none;stroke:#9ABAE3;stroke-width:2.5;stroke-linecap:round;stroke-linejoin:round;stroke-miterlimit:10;" x1="238.88" y1="120.571" x2="290.013" y2="201.086"/>
					
						<line style="fill:none;stroke:#9ABAE3;stroke-width:2.5;stroke-linecap:round;stroke-linejoin:round;stroke-miterlimit:10;" x1="232.042" y1="124.913" x2="283.175" y2="205.429"/>
					
						<line style="fill:none;stroke:#9ABAE3;stroke-width:2.5;stroke-linecap:round;stroke-linejoin:round;stroke-miterlimit:10;" x1="225.203" y1="129.256" x2="276.336" y2="209.772"/>
					
						<line style="fill:none;stroke:#9ABAE3;stroke-width:2.5;stroke-linecap:round;stroke-linejoin:round;stroke-miterlimit:10;" x1="218.365" y1="133.599" x2="255.464" y2="192.017"/>
					
						<line style="fill:none;stroke:#9ABAE3;stroke-width:2.5;stroke-linecap:round;stroke-linejoin:round;stroke-miterlimit:10;" x1="321.746" y1="67.945" x2="372.671" y2="148.132"/>
					
						<line style="fill:none;stroke:#9ABAE3;stroke-width:2.5;stroke-linecap:round;stroke-linejoin:round;stroke-miterlimit:10;" x1="314.908" y1="72.287" x2="365.832" y2="152.475"/>
					
						<line style="fill:none;stroke:#9ABAE3;stroke-width:2.5;stroke-linecap:round;stroke-linejoin:round;stroke-miterlimit:10;" x1="308.07" y1="76.63" x2="358.994" y2="156.818"/>
					
						<line style="fill:none;stroke:#9ABAE3;stroke-width:2.5;stroke-linecap:round;stroke-linejoin:round;stroke-miterlimit:10;" x1="301.232" y1="80.973" x2="352.156" y2="161.161"/>
					
						<line style="fill:none;stroke:#9ABAE3;stroke-width:2.5;stroke-linecap:round;stroke-linejoin:round;stroke-miterlimit:10;" x1="285.133" y1="91.197" x2="336.266" y2="171.712"/>
					
						<line style="fill:none;stroke:#9ABAE3;stroke-width:2.5;stroke-linecap:round;stroke-linejoin:round;stroke-miterlimit:10;" x1="278.295" y1="95.539" x2="315.394" y2="153.957"/>
				</g>
			</g>
		</g>
		<g>
			<g>
				
					<polygon style="fill:#FFFFFF;stroke:#9ABAE3;stroke-width:2.5;stroke-linecap:round;stroke-linejoin:round;stroke-miterlimit:10;" points="
					418.408,208.77 435.159,82.503 593.71,103.537 580.557,202.678 549.736,226.193 				"/>
				<g>
					
						<line style="fill:none;stroke:#9ABAE3;stroke-width:2.5;stroke-linecap:round;stroke-linejoin:round;stroke-miterlimit:10;" x1="507.125" y1="105.303" x2="493.829" y2="205.523"/>
					
						<line style="fill:none;stroke:#9ABAE3;stroke-width:2.5;stroke-linecap:round;stroke-linejoin:round;stroke-miterlimit:10;" x1="498.614" y1="104.174" x2="485.318" y2="204.394"/>
					
						<line style="fill:none;stroke:#9ABAE3;stroke-width:2.5;stroke-linecap:round;stroke-linejoin:round;stroke-miterlimit:10;" x1="490.102" y1="103.045" x2="480.455" y2="175.759"/>
					
						<line style="fill:none;stroke:#9ABAE3;stroke-width:2.5;stroke-linecap:round;stroke-linejoin:round;stroke-miterlimit:10;" x1="530.419" y1="108.393" x2="517.124" y2="208.613"/>
					
						<line style="fill:none;stroke:#9ABAE3;stroke-width:2.5;stroke-linecap:round;stroke-linejoin:round;stroke-miterlimit:10;" x1="521.908" y1="107.264" x2="512.261" y2="179.978"/>
					
						<line style="fill:none;stroke:#9ABAE3;stroke-width:2.5;stroke-linecap:round;stroke-linejoin:round;stroke-miterlimit:10;" x1="473.079" y1="100.786" x2="459.783" y2="201.006"/>
					
						<line style="fill:none;stroke:#9ABAE3;stroke-width:2.5;stroke-linecap:round;stroke-linejoin:round;stroke-miterlimit:10;" x1="464.567" y1="99.657" x2="451.271" y2="199.877"/>
					
						<line style="fill:none;stroke:#9ABAE3;stroke-width:2.5;stroke-linecap:round;stroke-linejoin:round;stroke-miterlimit:10;" x1="456.055" y1="98.528" x2="442.759" y2="198.748"/>
					
						<line style="fill:none;stroke:#9ABAE3;stroke-width:2.5;stroke-linecap:round;stroke-linejoin:round;stroke-miterlimit:10;" x1="447.543" y1="97.398" x2="437.897" y2="170.113"/>
					
						<rect x="517.869" y="133.516" transform="matrix(-0.1315 0.9913 -0.9913 -0.1315 774.7758 -381.5957)" style="fill:#9ABAE3;stroke:#263238;stroke-width:2.5;stroke-linecap:round;stroke-linejoin:round;stroke-miterlimit:10;" width="73.351" height="30.151"/>
				</g>
				
					<polygon style="fill:#FFFFFF;stroke:#9ABAE3;stroke-width:2.5;stroke-linecap:round;stroke-linejoin:round;stroke-miterlimit:10;" points="
					553.335,199.066 549.736,226.193 580.461,202.665 				"/>
			</g>
		</g>
		<g>
			<g>
				
					<rect x="220.837" y="74.685" transform="matrix(0.7865 -0.6176 0.6176 0.7865 -19.9746 211.7605)" style="fill:#FFFFFF;stroke:#EC644E;stroke-width:2.5;stroke-linecap:round;stroke-linejoin:round;stroke-miterlimit:10;" width="150.893" height="120.169"/>
				<g>
					
						<line style="fill:none;stroke:#EC644E;stroke-width:2.5;stroke-linecap:round;stroke-linejoin:round;stroke-miterlimit:10;" x1="262.652" y1="100.543" x2="321.559" y2="175.558"/>
					
						<line style="fill:none;stroke:#EC644E;stroke-width:2.5;stroke-linecap:round;stroke-linejoin:round;stroke-miterlimit:10;" x1="256.281" y1="105.546" x2="315.188" y2="180.561"/>
					
						<line style="fill:none;stroke:#EC644E;stroke-width:2.5;stroke-linecap:round;stroke-linejoin:round;stroke-miterlimit:10;" x1="249.91" y1="110.549" x2="292.65" y2="164.975"/>
					
						<line style="fill:none;stroke:#EC644E;stroke-width:2.5;stroke-linecap:round;stroke-linejoin:round;stroke-miterlimit:10;" x1="237.168" y1="120.555" x2="296.075" y2="195.57"/>
					
						<line style="fill:none;stroke:#EC644E;stroke-width:2.5;stroke-linecap:round;stroke-linejoin:round;stroke-miterlimit:10;" x1="230.796" y1="125.558" x2="289.704" y2="200.573"/>
					
						<line style="fill:none;stroke:#EC644E;stroke-width:2.5;stroke-linecap:round;stroke-linejoin:round;stroke-miterlimit:10;" x1="224.425" y1="130.561" x2="283.333" y2="205.576"/>
					
						<line style="fill:none;stroke:#EC644E;stroke-width:2.5;stroke-linecap:round;stroke-linejoin:round;stroke-miterlimit:10;" x1="218.054" y1="135.564" x2="260.794" y2="189.991"/>
					
						<line style="fill:none;stroke:#EC644E;stroke-width:2.5;stroke-linecap:round;stroke-linejoin:round;stroke-miterlimit:10;" x1="314.373" y1="59.928" x2="373.04" y2="134.637"/>
					
						<line style="fill:none;stroke:#EC644E;stroke-width:2.5;stroke-linecap:round;stroke-linejoin:round;stroke-miterlimit:10;" x1="308.002" y1="64.931" x2="366.669" y2="139.64"/>
					
						<line style="fill:none;stroke:#EC644E;stroke-width:2.5;stroke-linecap:round;stroke-linejoin:round;stroke-miterlimit:10;" x1="301.631" y1="69.934" x2="360.298" y2="144.643"/>
					
						<line style="fill:none;stroke:#EC644E;stroke-width:2.5;stroke-linecap:round;stroke-linejoin:round;stroke-miterlimit:10;" x1="295.26" y1="74.937" x2="353.927" y2="149.646"/>
					
						<line style="fill:none;stroke:#EC644E;stroke-width:2.5;stroke-linecap:round;stroke-linejoin:round;stroke-miterlimit:10;" x1="280.261" y1="86.715" x2="339.168" y2="161.73"/>
					
						<line style="fill:none;stroke:#EC644E;stroke-width:2.5;stroke-linecap:round;stroke-linejoin:round;stroke-miterlimit:10;" x1="273.89" y1="91.718" x2="316.63" y2="146.145"/>
				</g>
			</g>
		</g>
		<g>
			
				<rect x="430.724" y="90.121" transform="matrix(0.9298 0.3681 -0.3681 0.9298 88.154 -176.0972)" style="fill:#FFFFFF;stroke:#263238;stroke-width:2.5;stroke-linecap:round;stroke-linejoin:round;stroke-miterlimit:10;" width="150.009" height="105.865"/>
			
				<rect x="439.258" y="98.62" transform="matrix(0.9298 0.3681 -0.3681 0.9298 88.1539 -176.0971)" style="fill:#EC644E;stroke:#263238;stroke-width:2.5;stroke-linecap:round;stroke-linejoin:round;stroke-miterlimit:10;" width="132.941" height="88.867"/>
			
				<path style="fill:#FFFFFF;stroke:#263238;stroke-width:2.5;stroke-linecap:round;stroke-linejoin:round;stroke-miterlimit:10;" d="
				M545.811,146.634c-2.093,5.286-8.075,7.876-13.361,5.783c-5.286-2.093-7.876-8.075-5.783-13.361
				c2.093-5.286,8.075-7.876,13.361-5.783C545.315,135.365,547.904,141.347,545.811,146.634z"/>
			
				<polygon style="fill:#FFFFFF;stroke:#263238;stroke-width:2.5;stroke-linecap:round;stroke-linejoin:round;stroke-miterlimit:10;" points="
				427.57,159.902 497.711,129.544 520.235,181.584 536.56,174.518 551.234,208.692 			"/>
		</g>
	</g>
</g>
<g id="Folder_2">
	<g>
		<g>
			<g>
				<g>
					<g>
						<path style="fill:#9ABAE3;" d="M450.844,291.147l-8.02,153.023c-0.264,5.041,3.608,9.128,8.65,9.128l215.76,0
							c5.041,0,9.342-4.087,9.606-9.128l7.324-139.744c0.264-5.041-3.608-9.128-8.65-9.128H540.352c-4.083,0-7.527-2.711-8.434-6.64
							l0,0c-0.907-3.928-4.351-6.64-8.434-6.64l-63.033,0C455.409,282.02,451.108,286.106,450.844,291.147z"/>
					</g>
				</g>
			</g>
			<g>
				<g>
					<g>
						<path style="fill:#FFFFFF;" d="M540.352,295.301h-7.251c-4.079,0-7.527-2.717-8.431-6.639
							c-0.456-1.965-1.548-3.625-3.025-4.796c-1.494-1.162-3.371-1.843-5.415-1.843h7.25c2.044,0,3.922,0.681,5.415,1.843
							c1.476,1.17,2.569,2.83,3.025,4.796C532.825,292.584,536.273,295.301,540.352,295.301z"/>
						<path style="fill:#FFFFFF;" d="M684.167,304.429l-7.324,139.742c-0.264,5.04-4.567,9.129-9.607,9.129h-7.251
							c5.04,0,9.343-4.088,9.607-9.129l7.324-139.742c0.264-5.04-3.61-9.129-8.65-9.129h7.251
							C680.558,295.301,684.431,299.389,684.167,304.429z"/>
					</g>
				</g>
			</g>
			<g>
				<g>
					<g>
						
							<path style="fill:none;stroke:#263238;stroke-width:2.5;stroke-linecap:round;stroke-linejoin:round;stroke-miterlimit:10;" d="
							M450.844,291.147l-8.02,153.023c-0.264,5.041,3.608,9.128,8.65,9.128l215.76,0c5.041,0,9.342-4.087,9.606-9.128l7.324-139.744
							c0.264-5.041-3.608-9.128-8.65-9.128H540.352c-4.083,0-7.527-2.711-8.434-6.64l0,0c-0.907-3.928-4.351-6.64-8.434-6.64
							l-63.033,0C455.409,282.02,451.108,286.106,450.844,291.147z"/>
					</g>
				</g>
			</g>
			
				<path style="fill:#FFFFFF;stroke:#263238;stroke-width:2.5;stroke-linecap:round;stroke-linejoin:round;stroke-miterlimit:10;" d="
				M516.829,294.903h-54.488c-1.833,0-3.242-1.486-3.146-3.319l0,0c0.096-1.833,1.66-3.319,3.493-3.319h54.488
				c1.833,0,3.242,1.486,3.146,3.319l0,0C520.226,293.416,518.662,294.903,516.829,294.903z"/>
		</g>
		<g>
			<g>
				
					<rect x="494.46" y="257.731" transform="matrix(0.7703 -0.6377 0.6377 0.7703 -85.0856 430.1308)" style="fill:#FFFFFF;stroke:#263238;stroke-width:2.5;stroke-linecap:round;stroke-linejoin:round;stroke-miterlimit:10;" width="120.169" height="150.893"/>
				<g>
					
						<line style="fill:none;stroke:#263238;stroke-width:2.5;stroke-linecap:round;stroke-linejoin:round;stroke-miterlimit:10;" x1="521.196" y1="367.679" x2="594.669" y2="306.859"/>
					
						<line style="fill:none;stroke:#263238;stroke-width:2.5;stroke-linecap:round;stroke-linejoin:round;stroke-miterlimit:10;" x1="526.361" y1="373.919" x2="599.834" y2="313.1"/>
					
						<line style="fill:none;stroke:#263238;stroke-width:2.5;stroke-linecap:round;stroke-linejoin:round;stroke-miterlimit:10;" x1="531.526" y1="380.159" x2="584.834" y2="336.032"/>
					
						<line style="fill:none;stroke:#263238;stroke-width:2.5;stroke-linecap:round;stroke-linejoin:round;stroke-miterlimit:10;" x1="541.857" y1="392.64" x2="615.331" y2="331.82"/>
					
						<line style="fill:none;stroke:#263238;stroke-width:2.5;stroke-linecap:round;stroke-linejoin:round;stroke-miterlimit:10;" x1="547.022" y1="398.88" x2="620.496" y2="338.06"/>
					
						<line style="fill:none;stroke:#263238;stroke-width:2.5;stroke-linecap:round;stroke-linejoin:round;stroke-miterlimit:10;" x1="552.188" y1="405.12" x2="625.661" y2="344.3"/>
					
						<line style="fill:none;stroke:#263238;stroke-width:2.5;stroke-linecap:round;stroke-linejoin:round;stroke-miterlimit:10;" x1="557.353" y1="411.36" x2="610.662" y2="367.233"/>
					
						<line style="fill:none;stroke:#263238;stroke-width:2.5;stroke-linecap:round;stroke-linejoin:round;stroke-miterlimit:10;" x1="479.262" y1="317.021" x2="552.436" y2="256.449"/>
					
						<line style="fill:none;stroke:#263238;stroke-width:2.5;stroke-linecap:round;stroke-linejoin:round;stroke-miterlimit:10;" x1="484.427" y1="323.261" x2="557.601" y2="262.69"/>
					
						<line style="fill:none;stroke:#263238;stroke-width:2.5;stroke-linecap:round;stroke-linejoin:round;stroke-miterlimit:10;" x1="489.593" y1="329.501" x2="562.767" y2="268.93"/>
					
						<line style="fill:none;stroke:#263238;stroke-width:2.5;stroke-linecap:round;stroke-linejoin:round;stroke-miterlimit:10;" x1="494.758" y1="335.741" x2="567.932" y2="275.17"/>
					
						<line style="fill:none;stroke:#263238;stroke-width:2.5;stroke-linecap:round;stroke-linejoin:round;stroke-miterlimit:10;" x1="506.919" y1="350.432" x2="580.392" y2="289.612"/>
					
						<line style="fill:none;stroke:#263238;stroke-width:2.5;stroke-linecap:round;stroke-linejoin:round;stroke-miterlimit:10;" x1="512.084" y1="356.672" x2="565.392" y2="312.545"/>
				</g>
			</g>
		</g>
		<g>
			<g>
				<g>
					<g>
						<path style="fill:#9ABAE3;" d="M432.886,316.089l5.033,128.44c0.192,4.898,4.219,8.771,9.121,8.771h219.214
							c5.182,0,9.324-4.308,9.121-9.486l-5.04-128.44c-0.192-4.898-4.219-8.77-9.121-8.77H442.007
							C436.825,306.604,432.683,310.912,432.886,316.089z"/>
					</g>
				</g>
			</g>
			<g>
				<g>
					<g>
						<path style="fill:#FFFFFF;" d="M675.375,443.81c0.2,5.18-3.94,9.49-9.12,9.49h-7.65c5.18,0,9.32-4.31,9.12-9.49l-5.04-128.44
							c-0.19-4.89-4.22-8.77-9.12-8.77h7.65c4.9,0,8.93,3.88,9.12,8.77L675.375,443.81z"/>
					</g>
				</g>
			</g>
			<g>
				<g>
					<g>
						
							<path style="fill:none;stroke:#263238;stroke-width:2.5;stroke-linecap:round;stroke-linejoin:round;stroke-miterlimit:10;" d="
							M432.886,316.089l5.033,128.44c0.192,4.898,4.219,8.771,9.121,8.771h219.214c5.182,0,9.324-4.308,9.121-9.486l-5.04-128.44
							c-0.192-4.898-4.219-8.77-9.121-8.77H442.007C436.825,306.604,432.683,310.912,432.886,316.089z"/>
					</g>
				</g>
			</g>
		</g>
		<g>
			<path style="fill:#FFFFFF;" d="M546.149,353.909c2.761,0,5,2.238,5,5v45.565c0,2.762-2.239,5-5,5c-2.761,0-5-2.238-5-5v-45.565
				C541.149,356.147,543.388,353.909,546.149,353.909z"/>
			<path style="fill:#FFFFFF;" d="M529.3,383.934c1.212,0,2.427,0.438,3.388,1.324l13.461,12.415l13.461-12.415
				c2.03-1.87,5.193-1.744,7.065,0.286c1.872,2.029,1.745,5.193-0.286,7.065l-16.851,15.541c-1.914,1.766-4.865,1.766-6.779,0
				l-16.851-15.541c-2.03-1.872-2.158-5.036-0.286-7.065C526.609,384.476,527.953,383.934,529.3,383.934z"/>
		</g>
	</g>
</g>
<g id="Folder_1">
	<g>
		<g>
			<g>
				<g>
					<g>
						<path style="fill:#EC644E;" d="M68.535,291.297l8.02,153.023c0.264,5.041,4.565,9.128,9.606,9.128l215.76,0
							c5.041,0,8.914-4.087,8.65-9.128l-7.324-139.744c-0.264-5.041-4.565-9.128-9.606-9.128H158.478
							c-4.083,0-7.811-2.711-9.13-6.64l0,0c-1.319-3.928-5.047-6.64-9.13-6.64l-63.033,0
							C72.143,282.169,68.271,286.256,68.535,291.297z"/>
					</g>
				</g>
			</g>
			<g>
				<g>
					<g>
						<path style="fill:#FFFFFF;" d="M158.479,295.45h-7.251c-4.079,0-7.812-2.717-9.127-6.639
							c-0.662-1.966-1.928-3.625-3.527-4.796c-1.616-1.162-3.564-1.843-5.609-1.843h7.25c2.044,0,3.993,0.681,5.609,1.843
							c1.599,1.171,2.865,2.83,3.527,4.796C150.667,292.734,154.399,295.45,158.479,295.45z"/>
						<path style="fill:#FFFFFF;" d="M303.251,304.579l7.324,139.742c0.264,5.04-3.61,9.129-8.65,9.129h-7.251
							c5.04,0,8.914-4.088,8.65-9.129L296,304.579c-0.264-5.04-4.567-9.129-9.607-9.129h7.25
							C298.684,295.45,302.986,299.539,303.251,304.579z"/>
					</g>
				</g>
			</g>
			<g>
				<g>
					<g>
						
							<path style="fill:none;stroke:#263238;stroke-width:2.5;stroke-linecap:round;stroke-linejoin:round;stroke-miterlimit:10;" d="
							M68.535,291.297l8.02,153.023c0.264,5.041,4.565,9.128,9.606,9.128l215.76,0c5.041,0,8.914-4.087,8.65-9.128l-7.324-139.744
							c-0.264-5.041-4.565-9.128-9.606-9.128H158.478c-4.083,0-7.811-2.711-9.13-6.64l0,0c-1.319-3.928-5.047-6.64-9.13-6.64
							l-63.033,0C72.143,282.169,68.271,286.256,68.535,291.297z"/>
					</g>
				</g>
			</g>
			
				<path style="fill:#FFFFFF;stroke:#263238;stroke-width:2.5;stroke-linecap:round;stroke-linejoin:round;stroke-miterlimit:10;" d="
				M134.913,295.052H80.425c-1.833,0-3.397-1.486-3.493-3.319l0,0c-0.096-1.833,1.312-3.319,3.146-3.319h54.488
				c1.833,0,3.397,1.486,3.494,3.319l0,0C138.155,293.566,136.747,295.052,134.913,295.052z"/>
		</g>
		<g>
			<g>
				
					<rect x="116.999" y="225.751" transform="matrix(0.9326 -0.361 0.361 0.9326 -96.7842 84.2301)" style="fill:#FFFFFF;stroke:#263238;stroke-width:2.5;stroke-linecap:round;stroke-linejoin:round;stroke-miterlimit:10;" width="120.169" height="150.893"/>
				<g>
					
						<line style="fill:none;stroke:#263238;stroke-width:2.5;stroke-linecap:round;stroke-linejoin:round;stroke-miterlimit:10;" x1="134.527" y1="323.366" x2="223.476" y2="288.936"/>
					
						<line style="fill:none;stroke:#263238;stroke-width:2.5;stroke-linecap:round;stroke-linejoin:round;stroke-miterlimit:10;" x1="137.451" y1="330.92" x2="226.4" y2="296.491"/>
					
						<line style="fill:none;stroke:#263238;stroke-width:2.5;stroke-linecap:round;stroke-linejoin:round;stroke-miterlimit:10;" x1="140.375" y1="338.475" x2="204.911" y2="313.495"/>
					
						<line style="fill:none;stroke:#263238;stroke-width:2.5;stroke-linecap:round;stroke-linejoin:round;stroke-miterlimit:10;" x1="146.223" y1="353.584" x2="235.173" y2="319.154"/>
					
						<line style="fill:none;stroke:#263238;stroke-width:2.5;stroke-linecap:round;stroke-linejoin:round;stroke-miterlimit:10;" x1="149.147" y1="361.138" x2="238.097" y2="326.709"/>
					
						<line style="fill:none;stroke:#263238;stroke-width:2.5;stroke-linecap:round;stroke-linejoin:round;stroke-miterlimit:10;" x1="152.071" y1="368.693" x2="241.021" y2="334.263"/>
					
						<line style="fill:none;stroke:#263238;stroke-width:2.5;stroke-linecap:round;stroke-linejoin:round;stroke-miterlimit:10;" x1="154.995" y1="376.247" x2="219.532" y2="351.267"/>
					
						<line style="fill:none;stroke:#263238;stroke-width:2.5;stroke-linecap:round;stroke-linejoin:round;stroke-miterlimit:10;" x1="110.788" y1="262.038" x2="199.375" y2="227.748"/>
					
						<line style="fill:none;stroke:#263238;stroke-width:2.5;stroke-linecap:round;stroke-linejoin:round;stroke-miterlimit:10;" x1="113.712" y1="269.592" x2="202.299" y2="235.303"/>
					
						<line style="fill:none;stroke:#263238;stroke-width:2.5;stroke-linecap:round;stroke-linejoin:round;stroke-miterlimit:10;" x1="116.637" y1="277.147" x2="205.223" y2="242.857"/>
					
						<line style="fill:none;stroke:#263238;stroke-width:2.5;stroke-linecap:round;stroke-linejoin:round;stroke-miterlimit:10;" x1="119.561" y1="284.701" x2="208.147" y2="250.412"/>
					
						<line style="fill:none;stroke:#263238;stroke-width:2.5;stroke-linecap:round;stroke-linejoin:round;stroke-miterlimit:10;" x1="126.445" y1="302.486" x2="215.394" y2="268.056"/>
					
						<line style="fill:none;stroke:#263238;stroke-width:2.5;stroke-linecap:round;stroke-linejoin:round;stroke-miterlimit:10;" x1="129.369" y1="310.04" x2="193.905" y2="285.06"/>
				</g>
			</g>
		</g>
		<g>
			<g>
				
					<rect x="145.2" y="276.001" transform="matrix(0.267 -0.9637 0.9637 0.267 -162.1475 458.9956)" style="fill:#FFFFFF;stroke:#EC644E;stroke-width:2.5;stroke-linecap:round;stroke-linejoin:round;stroke-miterlimit:10;" width="150.893" height="120.169"/>
				<g>
					
						<line style="fill:none;stroke:#EC644E;stroke-width:2.5;stroke-linecap:round;stroke-linejoin:round;stroke-miterlimit:10;" x1="173.269" y1="328.472" x2="265.187" y2="353.936"/>
					
						<line style="fill:none;stroke:#EC644E;stroke-width:2.5;stroke-linecap:round;stroke-linejoin:round;stroke-miterlimit:10;" x1="171.106" y1="336.279" x2="263.024" y2="361.743"/>
					
						<line style="fill:none;stroke:#EC644E;stroke-width:2.5;stroke-linecap:round;stroke-linejoin:round;stroke-miterlimit:10;" x1="168.944" y1="344.085" x2="235.634" y2="362.561"/>
					
						<line style="fill:none;stroke:#EC644E;stroke-width:2.5;stroke-linecap:round;stroke-linejoin:round;stroke-miterlimit:10;" x1="164.618" y1="359.699" x2="256.537" y2="385.163"/>
					
						<line style="fill:none;stroke:#EC644E;stroke-width:2.5;stroke-linecap:round;stroke-linejoin:round;stroke-miterlimit:10;" x1="162.456" y1="367.505" x2="254.374" y2="392.97"/>
					
						<line style="fill:none;stroke:#EC644E;stroke-width:2.5;stroke-linecap:round;stroke-linejoin:round;stroke-miterlimit:10;" x1="160.293" y1="375.312" x2="252.211" y2="400.776"/>
					
						<line style="fill:none;stroke:#EC644E;stroke-width:2.5;stroke-linecap:round;stroke-linejoin:round;stroke-miterlimit:10;" x1="158.13" y1="383.118" x2="224.821" y2="401.594"/>
					
						<line style="fill:none;stroke:#EC644E;stroke-width:2.5;stroke-linecap:round;stroke-linejoin:round;stroke-miterlimit:10;" x1="190.826" y1="265.097" x2="282.369" y2="290.457"/>
					
						<line style="fill:none;stroke:#EC644E;stroke-width:2.5;stroke-linecap:round;stroke-linejoin:round;stroke-miterlimit:10;" x1="188.663" y1="272.904" x2="280.207" y2="298.264"/>
					
						<line style="fill:none;stroke:#EC644E;stroke-width:2.5;stroke-linecap:round;stroke-linejoin:round;stroke-miterlimit:10;" x1="186.501" y1="280.71" x2="278.044" y2="306.071"/>
					
						<line style="fill:none;stroke:#EC644E;stroke-width:2.5;stroke-linecap:round;stroke-linejoin:round;stroke-miterlimit:10;" x1="184.338" y1="288.517" x2="275.881" y2="313.878"/>
					
						<line style="fill:none;stroke:#EC644E;stroke-width:2.5;stroke-linecap:round;stroke-linejoin:round;stroke-miterlimit:10;" x1="179.247" y1="306.895" x2="271.165" y2="332.359"/>
					
						<line style="fill:none;stroke:#EC644E;stroke-width:2.5;stroke-linecap:round;stroke-linejoin:round;stroke-miterlimit:10;" x1="177.084" y1="314.702" x2="243.774" y2="333.177"/>
				</g>
			</g>
		</g>
		<g>
			<g>
				
					<polygon style="fill:#FFFFFF;stroke:#9ABAE3;stroke-width:2.5;stroke-linecap:round;stroke-linejoin:round;stroke-miterlimit:10;" points="
					266.635,359.997 140.757,379.462 116.316,221.401 215.151,206.118 246.39,229.075 				"/>
				<g>
					
						<line style="fill:none;stroke:#9ABAE3;stroke-width:2.5;stroke-linecap:round;stroke-linejoin:round;stroke-miterlimit:10;" x1="142.381" y1="303.988" x2="242.291" y2="288.539"/>
					
						<line style="fill:none;stroke:#9ABAE3;stroke-width:2.5;stroke-linecap:round;stroke-linejoin:round;stroke-miterlimit:10;" x1="143.693" y1="312.473" x2="243.603" y2="297.024"/>
					
						<line style="fill:none;stroke:#9ABAE3;stroke-width:2.5;stroke-linecap:round;stroke-linejoin:round;stroke-miterlimit:10;" x1="145.005" y1="320.959" x2="217.494" y2="309.75"/>
					
						<line style="fill:none;stroke:#9ABAE3;stroke-width:2.5;stroke-linecap:round;stroke-linejoin:round;stroke-miterlimit:10;" x1="138.79" y1="280.766" x2="238.701" y2="265.317"/>
					
						<line style="fill:none;stroke:#9ABAE3;stroke-width:2.5;stroke-linecap:round;stroke-linejoin:round;stroke-miterlimit:10;" x1="140.102" y1="289.251" x2="212.592" y2="278.042"/>
					
						<line style="fill:none;stroke:#9ABAE3;stroke-width:2.5;stroke-linecap:round;stroke-linejoin:round;stroke-miterlimit:10;" x1="147.629" y1="337.93" x2="247.54" y2="322.481"/>
					
						<line style="fill:none;stroke:#9ABAE3;stroke-width:2.5;stroke-linecap:round;stroke-linejoin:round;stroke-miterlimit:10;" x1="148.941" y1="346.415" x2="248.852" y2="330.966"/>
					
						<line style="fill:none;stroke:#9ABAE3;stroke-width:2.5;stroke-linecap:round;stroke-linejoin:round;stroke-miterlimit:10;" x1="150.253" y1="354.901" x2="250.164" y2="339.452"/>
					
						<line style="fill:none;stroke:#9ABAE3;stroke-width:2.5;stroke-linecap:round;stroke-linejoin:round;stroke-miterlimit:10;" x1="151.565" y1="363.386" x2="224.055" y2="352.177"/>
					
						<rect x="133.896" y="231.226" transform="matrix(0.9883 -0.1528 0.1528 0.9883 -35.6343 28.9581)" style="fill:#9ABAE3;stroke:#263238;stroke-width:2.5;stroke-linecap:round;stroke-linejoin:round;stroke-miterlimit:10;" width="73.351" height="30.151"/>
				</g>
				
					<polygon style="fill:#FFFFFF;stroke:#9ABAE3;stroke-width:2.5;stroke-linecap:round;stroke-linejoin:round;stroke-miterlimit:10;" points="
					219.348,233.257 246.39,229.075 215.166,206.214 				"/>
			</g>
		</g>
		<g>
			<g>
				<g>
					<g>
						<path style="fill:#EC644E;" d="M320.085,316.239l-5.033,128.44c-0.192,4.898-4.219,8.771-9.121,8.771H86.717
							c-5.182,0-9.324-4.308-9.121-9.486l5.04-128.44c0.192-4.898,4.219-8.77,9.121-8.77h219.206
							C316.145,306.754,320.288,311.062,320.085,316.239z"/>
					</g>
				</g>
			</g>
			<g>
				<g>
					<g>
						<path style="fill:#FFFFFF;" d="M320.082,316.241l-5.032,128.439c-0.192,4.901-4.219,8.771-9.12,8.771h-8.08
							c4.901,0,8.928-3.87,9.12-8.771l5.032-128.439c0.201-5.18-3.94-9.487-9.12-9.487h8.08
							C316.142,306.754,320.292,311.061,320.082,316.241z"/>
					</g>
				</g>
			</g>
			<g>
				<g>
					<g>
						
							<path style="fill:none;stroke:#263238;stroke-width:2.5;stroke-linecap:round;stroke-linejoin:round;stroke-miterlimit:10;" d="
							M320.085,316.239l-5.033,128.44c-0.192,4.898-4.219,8.771-9.121,8.771H86.717c-5.182,0-9.324-4.308-9.121-9.486l5.04-128.44
							c0.192-4.898,4.219-8.77,9.121-8.77h219.206C316.145,306.754,320.288,311.062,320.085,316.239z"/>
					</g>
				</g>
			</g>
		</g>
		<g>
			<path style="fill:#FFFFFF;" d="M202.841,409.475c-2.761,0-5-2.238-5-5v-45.565c0-2.762,2.239-5,5-5c2.761,0,5,2.238,5,5v45.565
				C207.841,407.236,205.602,409.475,202.841,409.475z"/>
			<path style="fill:#FFFFFF;" d="M219.69,379.45c-1.212,0-2.427-0.438-3.388-1.324l-13.461-12.415l-13.461,12.415
				c-2.03,1.87-5.193,1.744-7.065-0.286c-1.872-2.029-1.745-5.193,0.286-7.065l16.851-15.541c1.914-1.766,4.865-1.766,6.779,0
				l16.851,15.541c2.03,1.872,2.158,5.036,0.286,7.065C222.381,378.908,221.038,379.45,219.69,379.45z"/>
		</g>
	</g>
</g>
<g id="Check">
	<g>
		<path style="fill:#EC644E;" d="M680.867,327.348h-45.601c-4.575,0-8.284-3.709-8.284-8.284v-45.601
			c0-4.575,3.709-8.284,8.284-8.284h45.601c4.575,0,8.284,3.709,8.284,8.284v45.601
			C689.151,323.639,685.442,327.348,680.867,327.348z"/>
		
			<path style="fill:#FFFFFF;stroke:#263238;stroke-width:2.5;stroke-linecap:round;stroke-linejoin:round;stroke-miterlimit:10;" d="
			M655.694,311.865l-17.224-17.224c-0.87-0.87-0.87-2.281,0-3.151l5.22-5.219c0.87-0.87,2.281-0.87,3.151,0l9.589,9.589
			c0.464,0.464,1.217,0.464,1.681,0l29.224-29.224c0.87-0.87,2.281-0.87,3.151,0l5.218,5.219c0.87,0.87,0.87,2.281,0,3.151
			l-36.859,36.858C657.975,312.735,656.564,312.735,655.694,311.865z"/>
	</g>
</g>
</svg>
